<?xml version="1.0" encoding="UTF-8"?>
<svg version="1.1" xmlns="http://www.w3.org/2000/svg" width="512" height="512">
<path d="M0 0 C0.91297852 0.16628906 1.82595703 0.33257812 2.76660156 0.50390625 C44.3986228 8.16363077 83.16052206 26.40624883 116 53 C116.54446777 53.44005371 117.08893555 53.88010742 117.64990234 54.33349609 C131.72173929 65.81174863 144.93680647 78.57719064 156 93 C156.75925781 93.93070312 157.51851563 94.86140625 158.30078125 95.8203125 C184.1596216 128.07168914 200.62794761 167.52514646 208 208 C208.16371094 208.83563477 208.32742188 209.67126953 208.49609375 210.53222656 C213.78656862 238.24163521 213.41678597 270.35093304 208 298 C207.83371094 298.91297852 207.66742188 299.82595703 207.49609375 300.76660156 C199.83636923 342.3986228 181.59375117 381.16052206 155 414 C154.55994629 414.54446777 154.11989258 415.08893555 153.66650391 415.64990234 C142.18825137 429.72173929 129.42280936 442.93680647 115 454 C114.06929688 454.75925781 113.13859375 455.51851563 112.1796875 456.30078125 C79.92831086 482.1596216 40.47485354 498.62794761 0 506 C-0.83563477 506.16371094 -1.67126953 506.32742188 -2.53222656 506.49609375 C-30.24163521 511.78656862 -62.35093304 511.41678597 -90 506 C-90.91297852 505.83371094 -91.82595703 505.66742188 -92.76660156 505.49609375 C-134.3986228 497.83636923 -173.16052206 479.59375117 -206 453 C-206.54446777 452.55994629 -207.08893555 452.11989258 -207.64990234 451.66650391 C-221.72173929 440.18825137 -234.93680647 427.42280936 -246 413 C-246.75925781 412.06929688 -247.51851562 411.13859375 -248.30078125 410.1796875 C-274.1596216 377.92831086 -290.62794761 338.47485354 -298 298 C-298.16371094 297.16436523 -298.32742188 296.32873047 -298.49609375 295.46777344 C-303.78656862 267.75836479 -303.41678597 235.64906696 -298 208 C-297.83371094 207.08702148 -297.66742188 206.17404297 -297.49609375 205.23339844 C-289.83636923 163.6013772 -271.59375117 124.83947794 -245 92 C-244.55994629 91.45553223 -244.11989258 90.91106445 -243.66650391 90.35009766 C-232.18825137 76.27826071 -219.42280936 63.06319353 -205 52 C-204.06929688 51.24074219 -203.13859375 50.48148438 -202.1796875 49.69921875 C-169.92831086 23.8403784 -130.47485354 7.37205239 -90 0 C-89.16436523 -0.16371094 -88.32873047 -0.32742188 -87.46777344 -0.49609375 C-59.75836479 -5.78656862 -27.64906696 -5.41678597 0 0 Z " fill="#FECD00" transform="translate(301,3)"/>
<path d="M0 0 C0.91297852 0.16628906 1.82595703 0.33257812 2.76660156 0.50390625 C44.3986228 8.16363077 83.16052206 26.40624883 116 53 C116.54446777 53.44005371 117.08893555 53.88010742 117.64990234 54.33349609 C131.72173929 65.81174863 144.93680647 78.57719064 156 93 C156.75925781 93.93070312 157.51851563 94.86140625 158.30078125 95.8203125 C184.1596216 128.07168914 200.62794761 167.52514646 208 208 C208.16371094 208.83563477 208.32742188 209.67126953 208.49609375 210.53222656 C213.78656862 238.24163521 213.41678597 270.35093304 208 298 C207.83371094 298.91297852 207.66742188 299.82595703 207.49609375 300.76660156 C199.83636923 342.3986228 181.59375117 381.16052206 155 414 C154.55994629 414.54446777 154.11989258 415.08893555 153.66650391 415.64990234 C142.18825137 429.72173929 129.42280936 442.93680647 115 454 C114.06929688 454.75925781 113.13859375 455.51851563 112.1796875 456.30078125 C79.92831086 482.1596216 40.47485354 498.62794761 0 506 C-0.83563477 506.16371094 -1.67126953 506.32742188 -2.53222656 506.49609375 C-30.24163521 511.78656862 -62.35093304 511.41678597 -90 506 C-90.91297852 505.83371094 -91.82595703 505.66742188 -92.76660156 505.49609375 C-134.3986228 497.83636923 -173.16052206 479.59375117 -206 453 C-206.54446777 452.55994629 -207.08893555 452.11989258 -207.64990234 451.66650391 C-221.72173929 440.18825137 -234.93680647 427.42280936 -246 413 C-246.75925781 412.06929688 -247.51851562 411.13859375 -248.30078125 410.1796875 C-274.1596216 377.92831086 -290.62794761 338.47485354 -298 298 C-298.16371094 297.16436523 -298.32742188 296.32873047 -298.49609375 295.46777344 C-303.78656862 267.75836479 -303.41678597 235.64906696 -298 208 C-297.83371094 207.08702148 -297.66742188 206.17404297 -297.49609375 205.23339844 C-289.83636923 163.6013772 -271.59375117 124.83947794 -245 92 C-244.55994629 91.45553223 -244.11989258 90.91106445 -243.66650391 90.35009766 C-232.18825137 76.27826071 -219.42280936 63.06319353 -205 52 C-204.06929688 51.24074219 -203.13859375 50.48148438 -202.1796875 49.69921875 C-169.92831086 23.8403784 -130.47485354 7.37205239 -90 0 C-89.16436523 -0.16371094 -88.32873047 -0.32742188 -87.46777344 -0.49609375 C-59.75836479 -5.78656862 -27.64906696 -5.41678597 0 0 Z M-183 71 C-183.81597656 71.62261719 -184.63195312 72.24523437 -185.47265625 72.88671875 C-192.31352696 78.23148778 -198.70159609 84.03613426 -205 90 C-205.93070312 90.8765625 -206.86140625 91.753125 -207.8203125 92.65625 C-214.96595519 99.57795517 -221.03925666 107.05623507 -227 115 C-227.721875 115.95003906 -228.44375 116.90007812 -229.1875 117.87890625 C-252.30028532 148.89156936 -267.67106926 186.51310014 -272 225 C-272.0928125 225.79535156 -272.185625 226.59070313 -272.28125 227.41015625 C-278.38700759 285.7637538 -262.32519315 347.4948511 -225.25 393.45703125 C-222.57030257 396.70120088 -219.80575627 399.86461918 -217 403 C-216.53029785 403.52609863 -216.0605957 404.05219727 -215.57666016 404.59423828 C-206.65382475 414.54534452 -197.52783287 423.72509502 -187 432 C-185.60974609 433.09828125 -185.60974609 433.09828125 -184.19140625 434.21875 C-136.72782513 470.798552 -76.62935739 486.83696031 -17.1875 479.875 C23.0024664 474.62510487 60.78542725 459.67606118 93 435 C93.81597656 434.37738281 94.63195312 433.75476563 95.47265625 433.11328125 C102.31352696 427.76851222 108.70159609 421.96386574 115 416 C115.93070312 415.1234375 116.86140625 414.246875 117.8203125 413.34375 C124.96595519 406.42204483 131.03925666 398.94376493 137 391 C137.721875 390.04996094 138.44375 389.09992188 139.1875 388.12109375 C162.94213211 356.24720262 177.54081287 318.4419393 182 279 C182.09498779 278.16968262 182.18997559 277.33936523 182.2878418 276.48388672 C188.50269954 216.21357742 170.55495564 156.50081875 132.5625 109.4375 C122.06034055 96.77736258 110.94297486 85.17947482 98 75 C97.02546875 74.20851562 96.0509375 73.41703125 95.046875 72.6015625 C55.16421973 40.83572903 5.18513687 24.72489434 -45.5625 24.8125 C-46.26720428 24.81343658 -46.97190857 24.81437317 -47.69796753 24.81533813 C-96.71517212 24.9561025 -144.02523373 41.14569386 -183 71 Z " fill="#000000" transform="translate(301,3)"/>
<path d="M0 0 C0.70753418 0.00093658 1.41506836 0.00187317 2.14404297 0.00283813 C57.28645902 0.16065889 111.58120833 19.75884056 152.5 57.1875 C149.03875203 57.1875 147.51056702 56.36354407 144.44140625 54.80859375 C143.4261084 54.30279785 142.41081055 53.79700195 141.36474609 53.27587891 C140.27500488 52.73108887 139.18526367 52.18629883 138.0625 51.625 C119.82761877 42.71765069 101.26594235 36.71083436 81.5 32.1875 C80.61505859 31.97432129 79.73011719 31.76114258 78.81835938 31.54150391 C25.13288601 19.05121204 -34.55195221 30.48378525 -82.5 56.1875 C-83.38413574 56.65857178 -83.38413574 56.65857178 -84.28613281 57.13916016 C-98.32696548 64.69148547 -111.44264173 73.76053923 -123.5 84.1875 C-124.63695312 85.15816406 -124.63695312 85.15816406 -125.796875 86.1484375 C-128.41600341 88.44237211 -130.97140781 90.79492205 -133.5 93.1875 C-134.43271729 94.06921875 -134.43271729 94.06921875 -135.38427734 94.96875 C-145.86941242 104.9654548 -155.14555275 115.350376 -163.5 127.1875 C-163.95455566 127.82929199 -164.40911133 128.47108398 -164.87744141 129.13232422 C-202.91341138 183.34370852 -215.08897202 247.88639433 -205.12646484 312.77294922 C-204.31779872 317.18058929 -203.21054503 321.47372352 -201.98168945 325.78149414 C-201.5 328.1875 -201.5 328.1875 -202.5 331.1875 C-214.33523752 307.12131792 -222.05846601 281.82705506 -225.5 255.1875 C-225.64248169 254.12341919 -225.64248169 254.12341919 -225.7878418 253.0378418 C-226.73919453 244.96445106 -226.70044296 236.86678397 -226.6875 228.75 C-226.68656342 227.99294769 -226.68562683 227.23589539 -226.68466187 226.4559021 C-226.653774 214.93533683 -226.45744355 203.56544419 -224.5 192.1875 C-224.3546582 191.33849121 -224.20931641 190.48948242 -224.05957031 189.61474609 C-217.56357836 153.39408038 -202.87283484 119.3952131 -180.5 90.1875 C-179.87738281 89.37152344 -179.25476563 88.55554688 -178.61328125 87.71484375 C-173.26851222 80.87397304 -167.46386574 74.48590391 -161.5 68.1875 C-160.6234375 67.25679688 -159.746875 66.32609375 -158.84375 65.3671875 C-151.92204483 58.22154481 -144.44376493 52.14824334 -136.5 46.1875 C-135.07494141 45.1046875 -135.07494141 45.1046875 -133.62109375 44 C-102.60919857 20.88778699 -64.98643012 5.51490137 -26.5 1.1875 C-25.2939209 1.0471936 -25.2939209 1.0471936 -24.06347656 0.90405273 C-16.04986708 0.06688756 -8.05113257 -0.01381044 0 0 Z " fill="#FEE353" transform="translate(254.5,27.8125)"/>
<path d="M0 0 C2.24185708 2.24185708 2.86757749 3.86495471 3.98828125 6.8125 C4.36251221 7.79621582 4.73674316 8.77993164 5.12231445 9.79345703 C10.69675735 24.81186379 15.28796516 39.50011788 18.25 55.25 C18.41346924 56.11254395 18.57693848 56.97508789 18.74536133 57.86376953 C28.95255549 115.60110352 13.96697006 177.17488312 -19.12109375 225.0703125 C-21.03635732 227.7509348 -22.99669071 230.38468176 -25 233 C-25.62261719 233.81597656 -26.24523437 234.63195312 -26.88671875 235.47265625 C-32.23148778 242.31352696 -38.03613426 248.70159609 -44 255 C-44.8765625 255.93070313 -45.753125 256.86140625 -46.65625 257.8203125 C-53.57795517 264.96595519 -61.05623507 271.03925666 -69 277 C-69.95003906 277.721875 -70.90007812 278.44375 -71.87890625 279.1875 C-103.75486177 302.94367064 -141.55691771 317.53652082 -181 322 C-181.8237915 322.09498779 -182.64758301 322.18997559 -183.49633789 322.2878418 C-245.01703122 328.66847976 -304.72429131 309.67177263 -352.62890625 270.96484375 C-356.14929018 268.0476228 -359.59143287 265.04676392 -363 262 C-360 261 -360 261 -357.81787109 261.87695312 C-356.97820801 262.34037109 -356.13854492 262.80378906 -355.2734375 263.28125 C-354.33266357 263.79026855 -353.39188965 264.29928711 -352.42260742 264.82373047 C-350.91404175 265.65348389 -350.91404175 265.65348389 -349.375 266.5 C-329.3540764 277.21498532 -308.26391413 285.30341031 -286 290 C-285.18917969 290.18336914 -284.37835938 290.36673828 -283.54296875 290.55566406 C-253.37856522 297.15831683 -218.03666799 297.2248293 -188 290 C-186.2078795 289.61839032 -184.41488724 289.24085414 -182.62109375 288.8671875 C-137.45853815 279.15564465 -98.21655225 255.58127583 -65 224 C-64.34773438 223.38898438 -63.69546875 222.77796875 -63.0234375 222.1484375 C-57.86277734 217.17629461 -53.44913493 211.6053246 -49 206 C-48.21625 205.03320312 -47.4325 204.06640625 -46.625 203.0703125 C-22.69700259 172.93023884 -6.32391688 136.76267065 1 99 C1.15098145 98.25089355 1.30196289 97.50178711 1.45751953 96.72998047 C6.67832406 69.52209841 6.25490561 38.43705865 1.36376953 11.18994141 C0.74700807 7.47695459 0.38441364 3.74336778 0 0 Z " fill="#FEB000" transform="translate(463,161)"/>
<path d="M0 0 C3.90353769 1.30117923 4.69850017 3.03708372 7.0625 6.375 C26.29637832 32.7790211 56.20440579 51.89203746 88.57275391 57.47924805 C124.73007141 62.95179816 160.54564163 55.20015005 190.25 33.625 C202.64887953 23.93102508 213.38806971 13.25062911 222 0 C226.68013878 1.6051343 230.49345675 4.13029629 234.5625 6.875 C235.5515332 7.52662109 235.5515332 7.52662109 236.56054688 8.19140625 C240.05911409 10.53316079 243.14109545 12.8719365 246 16 C239.9973148 23.9952258 233.88044233 31.72808423 227 39 C226.23171875 39.82113281 225.4634375 40.64226562 224.671875 41.48828125 C197.22025305 69.95826982 157.07084438 87.03565838 117.69140625 88.2421875 C73.72725506 89.0091963 33.15283216 73.56329725 1.23828125 43.17578125 C-7.41902684 34.76857896 -15.19654794 25.9850664 -22 16 C-18.04170742 11.66769552 -13.76392301 8.76196095 -8.75 5.75 C-7.30668022 4.87079464 -5.86393999 3.99063694 -4.421875 3.109375 C-3.78862305 2.72749023 -3.15537109 2.34560547 -2.50292969 1.95214844 C-1.01056694 1.08353447 -1.01056694 1.08353447 0 0 Z " fill="#010100" transform="translate(144,310)"/>
<path d="M0 0 C12.07694547 8.9521414 18.40318638 20.61274553 22 35 C22 38.3 22 41.6 22 45 C12.76 45 3.52 45 -6 45 C-6.66 41.7 -7.32 38.4 -8 35 C-11.86202302 27.59778921 -16.61770162 22.19920461 -24.73828125 19.5078125 C-32.90933581 17.67320612 -40.81293337 18.62899014 -48 23 C-55.2350184 29.2812495 -57.65562723 35.58939058 -59 45 C-68.24 45 -77.48 45 -87 45 C-87 28.58728484 -81.84690608 16.3645023 -70.6875 4.39453125 C-50.59403781 -13.50850992 -22.23964726 -14.52500469 0 0 Z " fill="#010100" transform="translate(376,180)"/>
<path d="M0 0 C12.07694547 8.9521414 18.40318638 20.61274553 22 35 C22 38.3 22 41.6 22 45 C12.76 45 3.52 45 -6 45 C-6.66 41.7 -7.32 38.4 -8 35 C-11.86202302 27.59778921 -16.61770162 22.19920461 -24.73828125 19.5078125 C-32.90933581 17.67320612 -40.81293337 18.62899014 -48 23 C-55.2350184 29.2812495 -57.65562723 35.58939058 -59 45 C-68.24 45 -77.48 45 -87 45 C-87 29.16806982 -81.97393594 16.09459076 -70.91015625 4.546875 C-50.55526481 -13.26707026 -22.53876491 -14.72036234 0 0 Z " fill="#010100" transform="translate(201,180)"/>
</svg>
