<?xml version="1.0" encoding="UTF-8"?>
<svg version="1.1" xmlns="http://www.w3.org/2000/svg" width="100" height="100">
<path d="M0 0 C1.64453125 1.4296875 1.64453125 1.4296875 3 3 C3.845625 3.474375 4.69125 3.94875 5.5625 4.4375 C8 6 8 6 10 10 C13.63 10 17.26 10 21 10 C21.495 10.99 21.495 10.99 22 12 C23.175625 12.680625 23.175625 12.680625 24.375 13.375 C28.10987426 15.68706502 29.62120625 17.86361876 31 22 C31.78167845 29.96195337 31.3306642 35.90803363 27.09375 42.78125 C25.82040095 45.3643295 25.79975577 47.15653195 26 50 C26.88042969 50.43570313 27.76085937 50.87140625 28.66796875 51.3203125 C40.98186781 57.63443166 40.98186781 57.63443166 44 63 C44 65.31 44 67.62 44 70 C39.38 70 34.76 70 30 70 C30.33 71.65 30.66 73.3 31 75 C30 76 30 76 27.14634705 76.12025452 C25.86949539 76.11803391 24.59264374 76.11581329 23.27709961 76.11352539 C22.5746965 76.11367142 21.8722934 76.11381744 21.14860535 76.1139679 C18.81648722 76.11326872 16.484448 76.10547617 14.15234375 76.09765625 C12.53951562 76.09579208 10.92668693 76.09436818 9.31385803 76.09336853 C5.06084643 76.08954323 0.80786876 76.07971285 -3.44512939 76.06866455 C-7.7817743 76.05845069 -12.11842467 76.05387096 -16.45507812 76.04882812 C-24.97006769 76.03809059 -33.48502963 76.02101403 -42 76 C-43.125 72.25 -43.125 72.25 -42 70 C-46.62 70 -51.24 70 -56 70 C-56 61.53254438 -56 61.53254438 -53 58 C-50.55073784 56.31870844 -47.97497003 54.9976043 -45.3125 53.6875 C-44.61060547 53.32849609 -43.90871094 52.96949219 -43.18554688 52.59960938 C-41.46320595 51.720864 -39.73240098 50.85874243 -38 50 C-37.71694266 45.97350934 -38.38270136 43.95605921 -40.5 40.5625 C-43.81518127 34.28060822 -43.98974883 27.96123341 -43 21 C-41.05662011 16.36790987 -39.1823333 13.82307498 -35 11 C-31.98509443 9.99503148 -29.95818308 9.89664697 -26.8125 9.9375 C-25.91144531 9.94652344 -25.01039062 9.95554687 -24.08203125 9.96484375 C-23.39496094 9.97644531 -22.70789062 9.98804688 -22 10 C-21.71769531 9.38382813 -21.43539062 8.76765625 -21.14453125 8.1328125 C-19.23791373 4.57986655 -16.2544403 2.71682303 -12.8125 0.75 C-8.61593675 -0.36908353 -4.30241408 -0.67817713 0 0 Z M-17.875 11.0625 C-20.27512807 15.19605389 -20.34537289 19.4116433 -20.625 24.0625 C-20.6765625 24.79533203 -20.728125 25.52816406 -20.78125 26.28320312 C-21.13853397 30.26417799 -21.13853397 30.26417799 -20 34 C-19.34 34 -18.68 34 -18 34 C-17.87625 34.928125 -17.7525 35.85625 -17.625 36.8125 C-17.18466918 40.13925235 -17.18466918 40.13925235 -15 43 C-14.62890625 45.0859375 -14.62890625 45.0859375 -14.5625 47.375 C-14.52253906 48.12523437 -14.48257813 48.87546875 -14.44140625 49.6484375 C-15.28970563 53.21959993 -17.22931469 54.66106105 -20 57 C-22.14491484 58.26279564 -24.3357205 59.45040039 -26.5625 60.5625 C-30.65649855 62.61186575 -34.13936821 64.35601672 -37 68 C-37 69.32 -37 70.64 -37 72 C-16.54 72 3.92 72 25 72 C24.62886893 66.23578744 24.62886893 66.23578744 21.921875 63.8828125 C17.81135263 61.23405343 13.53391415 59.03201112 9.17578125 56.82421875 C4.10060289 54.20120577 4.10060289 54.20120577 3 52 C2.42651133 46.38642819 2.7536988 42.73418925 6 38 C6 36.68 6 35.36 6 34 C6.66 34 7.32 34 8 34 C9.44822444 26.75887779 9.7176951 18.77146818 6.375 12 C3.42527596 8.27403279 1.43256669 7.50540001 -3 6 C-3.495 5.505 -3.495 5.505 -4 5 C-9.63249354 4.17169213 -14.185981 7.00457911 -17.875 11.0625 Z " fill="#000000" transform="translate(56,10)"/>
</svg>
